<?xml version="1.0" encoding="utf-8"?>
<svg viewBox="0 0 910.1 307.6"
    xmlns="http://www.w3.org/2000/svg">
    <defs>
        <clipPath id="f7a508b5-ee33-450f-ace4-3af77846730d" transform="translate(0 -0.07)">
            <rect width="1920" height="1080" style="fill:none"/>
        </clipPath>
    </defs>
    <g style="clip-path: url('#f7a508b5-ee33-450f-ace4-3af77846730d');" transform="matrix(0.9999999999999999, 0, 0, 0.9999999999999999, -504.9499816894531, -386.1845397949219)">
        <path d="M880.37,530q-12.74-6-30.25-7.36L831.19,521q-14.25-1.17-21.49-8.41T802.46,496a29.73,29.73,0,0,1,16.47-26.86q8.3-4.44,20.91-4.44,13.08,0,21.26,4.67a30.1,30.1,0,0,1,12,11.91A32.35,32.35,0,0,1,877,496.72h22.9q0-16.35-7.59-28.15a50.77,50.77,0,0,0-21.15-18.34q-13.54-6.54-31.3-6.54-18,0-31.54,6.66a51.75,51.75,0,0,0-21.14,18.34q-7.6,11.69-7.6,27.33,0,19.86,13.55,32t36.22,14l18.92,1.63q17.52,1.64,26.63,8.53T884,569.62a29.25,29.25,0,0,1-4.67,16q-4.68,7.35-14.48,11.91t-25.24,4.56q-16.59,0-26.28-5.14T799.54,584.1a32.61,32.61,0,0,1-4.09-15.42h-22.9a50.78,50.78,0,0,0,8,28q7.93,12.38,22.89,19.39t36.21,7q20.1,0,35.28-6.78t23.6-18.92a47.64,47.64,0,0,0,8.41-27.8q0-13.79-6.89-23.72T880.37,530" transform="translate(0 -0.07)" style="fill:#282828"/>
        <path d="M1230,554q0,14.49-5.49,25.35a39.07,39.07,0,0,1-16.12,16.82q-10.62,6-26,6T1156.17,596a39.53,39.53,0,0,1-16.24-16.93q-5.49-10.87-5.49-25.12V448.36h-22.89v102.8q0,21.5,8.06,37.73a58.13,58.13,0,0,0,23.83,25.23q15.76,9,38.9,9,23.36,0,39-9a57.73,57.73,0,0,0,23.6-25.23q7.93-16.23,7.94-37.73V448.36H1230Z" transform="translate(0 -0.07)" style="fill:#282828"/>
        <path d="M1407.78,472.89q-7.24-12.13-21.38-18.8t-35.16-6.66h-52.1V618.91H1322V467.52h33.41q12.15,0,20.09,4.67a30.49,30.49,0,0,1,12,12.85,40.7,40.7,0,0,1,4.09,18.46,40.1,40.1,0,0,1-4.09,18.22,31.14,31.14,0,0,1-12,13q-7.95,4.78-20.09,4.79h-17.58v20.09h13.37q21,0,35.16-6.66T1407.78,534q7.24-12.27,7.24-28.62v-3.74q0-16.59-7.24-28.74" transform="translate(0 -0.07)" style="fill:#282828"/>
        <polygon points="987.02 448.29 925.58 618.84 948.47 618.84 966.6 567.9 1029.89 567.9 1022.28 547.35 973.91 547.35 1001.85 468.85 1010.35 468.85 1033.62 532.12 1036.95 541.18 1039.22 547.35 1046.79 567.9 1065.52 618.84 1089.12 618.84 1025.8 448.29 987.02 448.29" style="fill:#282828"/>
        <path d="M666.2,467.89a1,1,0,0,0-1.62.8v22.18a1,1,0,0,0,.4.8l16.46,12.54a1,1,0,0,1,.4.81v97.43a1,1,0,0,1-1,1H578.38a1,1,0,0,1-1-1V464.83a1,1,0,0,1,.4-.8l51.33-39.11h0v161.7a1,1,0,0,0,1,1h17.64a1,1,0,0,0,1-1V506h0V453.81h0V387.27a1,1,0,0,0-1.62-.8l-89,67.83a1,1,0,0,0-.39.8v41.49a1,1,0,0,1-.4.8l-52,39.58a1,1,0,0,0-.39.8v84.34a1,1,0,0,0,1,1H700.49a1,1,0,0,0,1-1V495.28a1,1,0,0,0-.39-.8ZM557.72,602.46a1,1,0,0,1-1,1H525.64a1,1,0,0,1-1-1v-55a1,1,0,0,1,.4-.8L556.1,523a1,1,0,0,1,1.62.8Z" transform="translate(0 -0.07)" style="fill:#b75817"/>
        <path d="M790.8,665.56a6.48,6.48,0,0,0-1.12-.91,10.68,10.68,0,0,0-1.73-.9,13.65,13.65,0,0,0-2.16-.69,10.34,10.34,0,0,0-2.38-.27,6.6,6.6,0,0,0-4,1,3.28,3.28,0,0,0-1.31,2.77,2.79,2.79,0,0,0,.73,2.05,5.61,5.61,0,0,0,2.23,1.25c1,.33,2.26.69,3.77,1.07a28.08,28.08,0,0,1,4.81,1.55,7.58,7.58,0,0,1,3.12,2.4,6.62,6.62,0,0,1,1.08,4,7.71,7.71,0,0,1-.77,3.57,6.43,6.43,0,0,1-2.16,2.44,9.5,9.5,0,0,1-3.19,1.38,16.61,16.61,0,0,1-3.89.44,19.92,19.92,0,0,1-4.06-.42,18.45,18.45,0,0,1-3.85-1.25,17,17,0,0,1-3.37-2l2-3.7a8.06,8.06,0,0,0,1.44,1.1,14.86,14.86,0,0,0,2.19,1.13,18.33,18.33,0,0,0,2.74.91,12.73,12.73,0,0,0,3,.36,7.16,7.16,0,0,0,3.94-.9,3.16,3.16,0,0,0,.49-4.79,7.21,7.21,0,0,0-2.58-1.4c-1.13-.38-2.48-.76-4-1.15a26.12,26.12,0,0,1-4.51-1.59,6.56,6.56,0,0,1-2.71-2.23,6.07,6.07,0,0,1-.91-3.47,7.73,7.73,0,0,1,1.31-4.55,8,8,0,0,1,3.56-2.8,13,13,0,0,1,5.06-.94,14.75,14.75,0,0,1,3.51.4,16.25,16.25,0,0,1,3.1,1.1,15.8,15.8,0,0,1,2.63,1.58Z" transform="translate(0 -0.07)" style="fill:#282828"/>
        <rect x="798.15" y="659.06" width="4.31" height="27.33" style="fill:#282828"/>
        <path d="M824.78,665.56a6,6,0,0,0-1.11-.91,11.12,11.12,0,0,0-1.73-.9,13.65,13.65,0,0,0-2.16-.69,10.42,10.42,0,0,0-2.39-.27,6.62,6.62,0,0,0-4,1,3.3,3.3,0,0,0-1.31,2.77,2.84,2.84,0,0,0,.73,2.05,5.66,5.66,0,0,0,2.24,1.25c1,.33,2.25.69,3.77,1.07a28.08,28.08,0,0,1,4.81,1.55,7.58,7.58,0,0,1,3.12,2.4,6.62,6.62,0,0,1,1.08,4,7.71,7.71,0,0,1-.77,3.57,6.6,6.6,0,0,1-2.16,2.44,9.59,9.59,0,0,1-3.19,1.38,16.67,16.67,0,0,1-3.89.44,19.85,19.85,0,0,1-4.06-.42,18.45,18.45,0,0,1-3.85-1.25,17,17,0,0,1-3.37-2l2-3.7a8.58,8.58,0,0,0,1.45,1.1,14.86,14.86,0,0,0,2.19,1.13,18.2,18.2,0,0,0,2.73.91,12.81,12.81,0,0,0,3,.36,7.18,7.18,0,0,0,3.94-.9,3.15,3.15,0,0,0,.48-4.79,7.21,7.21,0,0,0-2.58-1.4c-1.13-.38-2.47-.76-4-1.15a25.69,25.69,0,0,1-4.5-1.59,6.59,6.59,0,0,1-2.72-2.23,6.15,6.15,0,0,1-.9-3.47,7.73,7.73,0,0,1,1.31-4.55,8,8,0,0,1,3.56-2.8,13,13,0,0,1,5.06-.94,14.66,14.66,0,0,1,3.5.4,15.77,15.77,0,0,1,3.1,1.1,16.32,16.32,0,0,1,2.64,1.58Z" transform="translate(0 -0.07)" style="fill:#282828"/>
        <polygon points="852.19 662.87 843.11 662.87 843.11 686.38 838.76 686.38 838.76 662.87 829.63 662.87 829.63 659.06 852.19 659.06 852.19 662.87" style="fill:#282828"/>
        <polygon points="874.59 682.58 874.59 686.38 855.85 686.38 855.85 659.06 874.25 659.06 874.25 662.87 860.16 662.87 860.16 670.64 872.36 670.64 872.36 674.22 860.16 674.22 860.16 682.58 874.59 682.58" style="fill:#282828"/>
        <polygon points="902.03 686.38 902.03 666.91 893.99 681.69 891.45 681.69 883.37 666.91 883.37 686.38 879.05 686.38 879.05 659.06 883.67 659.06 892.72 675.76 901.76 659.06 906.38 659.06 906.38 686.38 902.03 686.38" style="fill:#282828"/>
        <path d="M920.43,659.13h4.08l10.62,27.33h-4.54L927.92,679H917l-2.68,7.43h-4.58Zm6.34,16.71-4.3-12-4.32,12Z" transform="translate(0 -0.07)" style="fill:#282828"/>
        <path d="M946.84,686.46V659.13h9.69a13.82,13.82,0,0,1,7.39,1.83,11.52,11.52,0,0,1,4.45,4.93,15.65,15.65,0,0,1,1.48,6.87,15.18,15.18,0,0,1-1.63,7.23,11.53,11.53,0,0,1-4.64,4.77,14.1,14.1,0,0,1-7.05,1.7Zm18.62-13.7a11.73,11.73,0,0,0-1.05-5.1,8.18,8.18,0,0,0-3-3.47,8.9,8.9,0,0,0-4.83-1.25h-5.38v19.71h5.38a8.65,8.65,0,0,0,4.87-1.31,8.44,8.44,0,0,0,3-3.54,11.86,11.86,0,0,0,1-5" transform="translate(0 -0.07)" style="fill:#282828"/>
        <polygon points="993.14 682.58 993.14 686.38 974.39 686.38 974.39 659.06 992.79 659.06 992.79 662.87 978.7 662.87 978.7 670.64 990.9 670.64 990.9 674.22 978.7 674.22 978.7 682.58 993.14 682.58" style="fill:#282828"/>
        <path d="M1013.81,659.13h4.08l10.62,27.33H1024L1021.3,679h-10.93l-2.68,7.43h-4.58Zm6.34,16.71-4.3-12-4.33,12Z" transform="translate(0 -0.07)" style="fill:#282828"/>
        <path d="M1042.17,686.65a12.4,12.4,0,0,1-5.52-1.11,9.56,9.56,0,0,1-3.62-3,13.09,13.09,0,0,1-2-4.38,20.64,20.64,0,0,1-.63-5.12V659.13h4.31V673a17.26,17.26,0,0,0,.38,3.63,10.29,10.29,0,0,0,1.23,3.14,6.2,6.2,0,0,0,2.29,2.2,7.32,7.32,0,0,0,3.56.8,7.16,7.16,0,0,0,3.6-.82,6.1,6.1,0,0,0,2.27-2.24,10.53,10.53,0,0,0,1.22-3.13,16.92,16.92,0,0,0,.38-3.58V659.13H1054V673a20.12,20.12,0,0,1-.67,5.29,12.72,12.72,0,0,1-2.08,4.35,9.87,9.87,0,0,1-3.64,2.94,12.4,12.4,0,0,1-5.43,1.08" transform="translate(0 -0.07)" style="fill:#282828"/>
        <polygon points="1079.78 662.87 1070.69 662.87 1070.69 686.38 1066.35 686.38 1066.35 662.87 1057.22 662.87 1057.22 659.06 1079.78 659.06 1079.78 662.87" style="fill:#282828"/>
        <path d="M1094.06,686.65a12.1,12.1,0,0,1-5.35-1.15,12.94,12.94,0,0,1-4.12-3.14,14.55,14.55,0,0,1-2.67-4.46,14.27,14.27,0,0,1-1-5.1,13.93,13.93,0,0,1,1-5.22,14.72,14.72,0,0,1,2.77-4.43,13.42,13.42,0,0,1,4.18-3.08,12.15,12.15,0,0,1,5.22-1.13,11.92,11.92,0,0,1,5.33,1.19,13,13,0,0,1,4.12,3.2,15.14,15.14,0,0,1,2.65,4.46,14.19,14.19,0,0,1,0,10.26,14.39,14.39,0,0,1-2.75,4.43,13.1,13.1,0,0,1-4.18,3.06,12.27,12.27,0,0,1-5.21,1.11m-8.7-13.85a11.54,11.54,0,0,0,.62,3.73,10.29,10.29,0,0,0,1.75,3.21,7.91,7.91,0,0,0,6.37,3,7.9,7.9,0,0,0,3.69-.84,8.14,8.14,0,0,0,2.72-2.29,10.71,10.71,0,0,0,1.67-3.24,11.47,11.47,0,0,0,.58-3.59,11.6,11.6,0,0,0-.6-3.72,9.9,9.9,0,0,0-1.75-3.19,8.53,8.53,0,0,0-2.75-2.22,7.77,7.77,0,0,0-3.56-.81,7.92,7.92,0,0,0-3.7.85,8.45,8.45,0,0,0-2.73,2.27,10.6,10.6,0,0,0-1.71,3.2,11.17,11.17,0,0,0-.6,3.62" transform="translate(0 -0.07)" style="fill:#282828"/>
        <polygon points="1134.63 686.38 1134.63 666.91 1126.58 681.69 1124.04 681.69 1115.96 666.91 1115.96 686.38 1111.65 686.38 1111.65 659.06 1116.27 659.06 1125.31 675.76 1134.36 659.06 1138.98 659.06 1138.98 686.38 1134.63 686.38" style="fill:#282828"/>
        <path d="M1153,659.13h4.08l10.62,27.33h-4.54l-2.67-7.43h-10.93l-2.68,7.43h-4.58Zm6.34,16.71-4.3-12-4.33,12Z" transform="translate(0 -0.07)" style="fill:#282828"/>
        <path d="M1168.34,672.56a14.27,14.27,0,0,1,3.49-9.29,12.73,12.73,0,0,1,4.17-3.16,12.91,12.91,0,0,1,5.59-1.17,11.87,11.87,0,0,1,6.38,1.67,10.69,10.69,0,0,1,4,4.29l-3.39,2.28a7.21,7.21,0,0,0-1.94-2.62,7.11,7.11,0,0,0-2.54-1.35,9.74,9.74,0,0,0-2.68-.38,7.83,7.83,0,0,0-3.77.86A8.35,8.35,0,0,0,1175,666a10.05,10.05,0,0,0-1.66,3.2,11.78,11.78,0,0,0-.56,3.54,11.07,11.07,0,0,0,.66,3.79,10.15,10.15,0,0,0,1.83,3.23A8.57,8.57,0,0,0,1178,682a7.87,7.87,0,0,0,3.54.8,8.78,8.78,0,0,0,2.73-.46,8.31,8.31,0,0,0,2.64-1.44,6.71,6.71,0,0,0,1.9-2.6l3.58,2a8.41,8.41,0,0,1-2.64,3.46,12.8,12.8,0,0,1-4,2.16,13.76,13.76,0,0,1-4.37.73,11.45,11.45,0,0,1-5.27-1.21,13.52,13.52,0,0,1-4.12-3.23,15.46,15.46,0,0,1-2.69-4.55,14.24,14.24,0,0,1-1-5.1m12.59,21.33a10.11,10.11,0,0,1-2.23-.27,9.31,9.31,0,0,1-2.31-.85l1.08-2.27a7.32,7.32,0,0,0,1.33.6,4.42,4.42,0,0,0,1.4.21,2.8,2.8,0,0,0,1.69-.46,1.59,1.59,0,0,0,.62-1.35,2.4,2.4,0,0,0-.62-1.6,8.16,8.16,0,0,0-1.77-1.44l1.47-1a12.14,12.14,0,0,1,2.56,2.1,3.92,3.92,0,0,1,1,2.71,3.39,3.39,0,0,1-1.1,2.62,4.48,4.48,0,0,1-3.1,1" transform="translate(0 -0.07)" style="fill:#282828"/>
        <path d="M1203.91,659.13H1208l10.62,27.33h-4.54L1211.4,679h-10.93l-2.68,7.43h-4.58Zm4.5-3.5a4.32,4.32,0,0,1-2-.42c-.55-.29-1-.56-1.5-.83a2.91,2.91,0,0,0-1.52-.41,1.66,1.66,0,0,0-1.25.43,1.89,1.89,0,0,0-.52.88,4.07,4.07,0,0,0-.12.54h-2.38a4.49,4.49,0,0,1,.19-1,6,6,0,0,1,.67-1.5,4.66,4.66,0,0,1,1.27-1.35,3.37,3.37,0,0,1,2-.55,4,4,0,0,1,1.93.42c.51.28,1,.56,1.48.84a3.09,3.09,0,0,0,1.64.43,1.86,1.86,0,0,0,1.38-.44,2.3,2.3,0,0,0,.56-.91,4.1,4.1,0,0,0,.14-.54h2.42a4,4,0,0,1-.21,1,6.53,6.53,0,0,1-.71,1.51,4.79,4.79,0,0,1-1.35,1.38,3.65,3.65,0,0,1-2.12.58m1.84,20.21-4.3-12-4.32,12Z" transform="translate(0 -0.07)" style="fill:#282828"/>
        <path d="M1232.31,686.65a12.13,12.13,0,0,1-5.35-1.15,12.8,12.8,0,0,1-4.11-3.14,14.57,14.57,0,0,1-2.68-4.46,14.26,14.26,0,0,1-.94-5.1,13.74,13.74,0,0,1,1-5.22,14.72,14.72,0,0,1,2.77-4.43,13.31,13.31,0,0,1,4.18-3.08,12.13,12.13,0,0,1,5.21-1.13,11.89,11.89,0,0,1,5.33,1.19,12.82,12.82,0,0,1,4.12,3.2,14.93,14.93,0,0,1,2.65,4.46,14,14,0,0,1,1,5,14.15,14.15,0,0,1-1,5.22,14.59,14.59,0,0,1-2.75,4.43,13.21,13.21,0,0,1-4.18,3.06,12.28,12.28,0,0,1-5.22,1.11m-8.69-13.85a11.53,11.53,0,0,0,.61,3.73,10.49,10.49,0,0,0,1.75,3.21,8.26,8.26,0,0,0,2.76,2.22,8,8,0,0,0,3.61.8,7.91,7.91,0,0,0,3.7-.84,8.11,8.11,0,0,0,2.71-2.29,11,11,0,0,0,1.68-3.24,11.81,11.81,0,0,0,0-7.31,9.74,9.74,0,0,0-1.76-3.19,8.32,8.32,0,0,0-2.75-2.22,7.74,7.74,0,0,0-3.56-.81,7.9,7.9,0,0,0-3.69.85,8.48,8.48,0,0,0-2.74,2.27,10.82,10.82,0,0,0-1.71,3.2,11.16,11.16,0,0,0-.59,3.62" transform="translate(0 -0.07)" style="fill:#282828"/>
        <path d="M1259.41,686.46V659.13h11.47a7.54,7.54,0,0,1,3.39.77,9.24,9.24,0,0,1,4.46,4.89,8.83,8.83,0,0,1,.62,3.23,9.6,9.6,0,0,1-1,4.33,8.41,8.41,0,0,1-2.89,3.33,7.48,7.48,0,0,1-4.33,1.27h-7.39v9.51Zm4.31-13.32h7.12a3.58,3.58,0,0,0,2.16-.67,4.57,4.57,0,0,0,1.44-1.83A6.25,6.25,0,0,0,1275,668a5.54,5.54,0,0,0-.61-2.65,4.82,4.82,0,0,0-1.6-1.79,3.83,3.83,0,0,0-2.14-.64h-6.89Z" transform="translate(0 -0.07)" style="fill:#282828"/>
        <path d="M1283.39,686.46V659.13h11.89a7.54,7.54,0,0,1,3.39.77,8.79,8.79,0,0,1,2.67,2,9.59,9.59,0,0,1,1.77,2.85,8.46,8.46,0,0,1,.64,3.23,9.5,9.5,0,0,1-.65,3.47,8.13,8.13,0,0,1-1.87,2.84,7.22,7.22,0,0,1-2.83,1.74l6.43,10.39H1300l-5.93-9.51h-6.35v9.51Zm4.31-13.32h7.54a3.45,3.45,0,0,0,2.12-.69,4.74,4.74,0,0,0,1.46-1.87,6,6,0,0,0,.54-2.56,5.29,5.29,0,0,0-.61-2.56,5.46,5.46,0,0,0-1.6-1.83,3.64,3.64,0,0,0-2.14-.69h-7.31Z" transform="translate(0 -0.07)" style="fill:#282828"/>
        <polygon points="1327.58 682.58 1327.58 686.38 1308.83 686.38 1308.83 659.06 1327.23 659.06 1327.23 662.87 1313.14 662.87 1313.14 670.64 1325.34 670.64 1325.34 674.22 1313.14 674.22 1313.14 682.58 1327.58 682.58" style="fill:#282828"/>
        <path d="M1332,686.46V659.13h9.7a13.84,13.84,0,0,1,7.39,1.83,11.52,11.52,0,0,1,4.45,4.93,15.79,15.79,0,0,1,1.48,6.87,15.19,15.19,0,0,1-1.64,7.23,11.53,11.53,0,0,1-4.64,4.77,14.08,14.08,0,0,1-7,1.7Zm18.63-13.7a11.59,11.59,0,0,0-1.06-5.1,8.22,8.22,0,0,0-3-3.47,8.9,8.9,0,0,0-4.83-1.25h-5.39v19.71h5.39a8.68,8.68,0,0,0,4.87-1.31,8.35,8.35,0,0,0,3-3.54,11.86,11.86,0,0,0,1-5" transform="translate(0 -0.07)" style="fill:#282828"/>
        <rect x="1359.6" y="659.06" width="4.31" height="27.33" style="fill:#282828"/>
        <path d="M1378,659.13H1382l10.62,27.33h-4.54l-2.67-7.43h-10.93l-2.68,7.43h-4.58Zm6.34,16.71-4.3-12-4.33,12Z" transform="translate(0 -0.07)" style="fill:#282828"/>
        <polygon points="1396.05 686.38 1396.05 659.06 1400.36 659.06 1400.36 682.58 1415.02 682.58 1415.02 686.38 1396.05 686.38" style="fill:#282828"/>
    </g>
</svg>