<?xml version="1.0" encoding="utf-8"?>
<svg viewBox="0 0 196.5 236.9"
    xmlns="http://www.w3.org/2000/svg">
    <path d="M 161.25 81.635 C 160.646 81.158 159.752 81.513 159.64 82.275 C 159.633 82.328 159.629 82.381 159.63 82.435 L 159.63 104.615 C 159.63 104.93 159.778 105.226 160.03 105.415 L 176.49 117.955 C 176.745 118.146 176.893 118.447 176.89 118.765 L 176.89 216.195 C 176.89 216.747 176.442 217.195 175.89 217.195 L 73.43 217.195 C 72.878 217.195 72.43 216.747 72.43 216.195 L 72.43 78.575 C 72.43 78.26 72.578 77.964 72.83 77.775 L 124.16 38.665 L 124.16 200.365 C 124.16 200.917 124.608 201.365 125.16 201.365 L 142.8 201.365 C 143.352 201.365 143.8 200.917 143.8 200.365 L 143.8 119.745 L 143.8 67.555 L 143.8 1.015 C 143.812 0.245 142.986 -0.249 142.314 0.126 C 142.267 0.152 142.222 0.182 142.18 0.215 L 53.18 68.045 C 52.932 68.236 52.788 68.532 52.79 68.845 L 52.79 110.335 C 52.79 110.65 52.642 110.946 52.39 111.135 L 0.39 150.715 C 0.142 150.906 -0.002 151.202 0 151.515 L 0 235.855 C 0 236.407 0.448 236.855 1 236.855 L 195.54 236.855 C 196.092 236.855 196.54 236.407 196.54 235.855 L 196.54 109.025 C 196.542 108.712 196.398 108.416 196.15 108.225 L 161.25 81.635 Z M 52.77 216.205 C 52.77 216.757 52.322 217.205 51.77 217.205 L 20.69 217.205 C 20.138 217.205 19.69 216.757 19.69 216.205 L 19.69 161.205 C 19.69 160.89 19.838 160.594 20.09 160.405 L 51.15 136.745 C 51.754 136.268 52.648 136.623 52.76 137.385 C 52.767 137.438 52.771 137.491 52.77 137.545 L 52.77 216.205 Z" style="fill:#b75817" transform="matrix(0.9999999999999999, 0, 0, 0.9999999999999999, 0, -2.842170943040401e-14)"/>
</svg>